<?xml version="1.0" standalone="no"?>
 <!DOCTYPE svg PUBLIC "-//W3C//DTD SVG 1.1//EN" 
 "http://www.w3.org/Graphics/SVG/1.1/DTD/svg11.dtd"> 
<svg xmlns="http://www.w3.org/2000/svg" version="1.1" 
    width="29.7002cm" height="21.0007cm" viewBox="0 0 116930 82680 ">
<title>SVG Picture created as SofleKeyboard-Edge_Cuts.svg date 2020/10/03 09:14:07 </title>
  <desc>Picture generated by PCBNEW </desc>
<g style="fill:#000000; fill-opacity:1;stroke:#000000; stroke-opacity:1;
stroke-linecap:round; stroke-linejoin:round; "
 transform="translate(0 0) scale(1 1)">
</g>
<g style="fill:#000000; fill-opacity:0.0; 
stroke:#000000; stroke-width:-0.000393701; stroke-opacity:1; 
stroke-linecap:round; stroke-linejoin:round;">
</g>
<g style="fill:#000000; fill-opacity:0.0; 
stroke:#000000; stroke-width:39.3701; stroke-opacity:1; 
stroke-linecap:round; stroke-linejoin:round;">
</g>
<g style="fill:#000000; fill-opacity:0.0; 
stroke:#000000; stroke-width:59.0551; stroke-opacity:1; 
stroke-linecap:round; stroke-linejoin:round;">
<rect x="69685.9" y="65357.2" width="42519.7" height="12598.4" rx="0" />
</g>
<g style="fill:#000000; fill-opacity:0.0; 
stroke:#000000; stroke-width:39.3701; stroke-opacity:1; 
stroke-linecap:round; stroke-linejoin:round;">
</g>
<g style="fill:#000000; fill-opacity:0.0; 
stroke:#000000; stroke-width:59.0551; stroke-opacity:1; 
stroke-linecap:round; stroke-linejoin:round;">
<rect x="3937.01" y="3937.01" width="109056" height="74806" rx="0" />
</g>
<g style="fill:#000000; fill-opacity:0.0; 
stroke:#000000; stroke-width:39.3701; stroke-opacity:1; 
stroke-linecap:round; stroke-linejoin:round;">
</g>
<g style="fill:#000000; fill-opacity:0.0; 
stroke:#000000; stroke-width:59.0551; stroke-opacity:1; 
stroke-linecap:round; stroke-linejoin:round;">
<rect x="4724.41" y="4724.41" width="107481" height="73231.2" rx="0" />
</g>
<g style="fill:#000000; fill-opacity:0.0; 
stroke:#000000; stroke-width:39.3701; stroke-opacity:1; 
stroke-linecap:round; stroke-linejoin:round;">
</g>
<g style="fill:#000000; fill-opacity:0.0; 
stroke:#000000; stroke-width:59.0551; stroke-opacity:1; 
stroke-linecap:round; stroke-linejoin:round;">
<path d="M23622 4724
L23622 3937
" />
</g>
<g style="fill:#000000; fill-opacity:0.0; 
stroke:#000000; stroke-width:39.3701; stroke-opacity:1; 
stroke-linecap:round; stroke-linejoin:round;">
</g>
<g style="fill:#000000; fill-opacity:0.0; 
stroke:#000000; stroke-width:59.0551; stroke-opacity:1; 
stroke-linecap:round; stroke-linejoin:round;">
<path d="M43307 4724
L43307 3937
" />
</g>
<g style="fill:#000000; fill-opacity:0.0; 
stroke:#000000; stroke-width:39.3701; stroke-opacity:1; 
stroke-linecap:round; stroke-linejoin:round;">
</g>
<g style="fill:#000000; fill-opacity:0.0; 
stroke:#000000; stroke-width:59.0551; stroke-opacity:1; 
stroke-linecap:round; stroke-linejoin:round;">
<path d="M62992 4724
L62992 3937
" />
</g>
<g style="fill:#000000; fill-opacity:0.0; 
stroke:#000000; stroke-width:39.3701; stroke-opacity:1; 
stroke-linecap:round; stroke-linejoin:round;">
</g>
<g style="fill:#000000; fill-opacity:0.0; 
stroke:#000000; stroke-width:59.0551; stroke-opacity:1; 
stroke-linecap:round; stroke-linejoin:round;">
<path d="M82677 4724
L82677 3937
" />
</g>
<g style="fill:#000000; fill-opacity:0.0; 
stroke:#000000; stroke-width:39.3701; stroke-opacity:1; 
stroke-linecap:round; stroke-linejoin:round;">
</g>
<g style="fill:#000000; fill-opacity:0.0; 
stroke:#000000; stroke-width:59.0551; stroke-opacity:1; 
stroke-linecap:round; stroke-linejoin:round;">
<path d="M102362 4724
L102362 3937
" />
</g>
<g style="fill:#000000; fill-opacity:0.0; 
stroke:#000000; stroke-width:39.3701; stroke-opacity:1; 
stroke-linecap:round; stroke-linejoin:round;">
</g>
<g style="fill:#000000; fill-opacity:0.0; 
stroke:#000000; stroke-width:59.0551; stroke-opacity:1; 
stroke-linecap:round; stroke-linejoin:round;">
<text x="13779.5" y="4586.61"
textLength="487.439" font-size="682.415" lengthAdjust="spacingAndGlyphs"
text-anchor="start" opacity="0">1</text>
<path d="M14199 4562
L13906 4562
" />
<path d="M14052 4562
L14052 4050
L14004 4123
L13955 4172
L13906 4196
" />
</g>
<g style="fill:#000000; fill-opacity:0.0; 
stroke:#000000; stroke-width:39.3701; stroke-opacity:1; 
stroke-linecap:round; stroke-linejoin:round;">
</g>
<g style="fill:#000000; fill-opacity:0.0; 
stroke:#000000; stroke-width:59.0551; stroke-opacity:1; 
stroke-linecap:round; stroke-linejoin:round;">
<text x="33464.6" y="4586.61"
textLength="546.494" font-size="682.415" lengthAdjust="spacingAndGlyphs"
text-anchor="start" opacity="0">2</text>
<path d="M33591 4099
L33615 4074
L33664 4050
L33786 4050
L33835 4074
L33859 4099
L33884 4147
L33884 4196
L33859 4269
L33567 4562
L33884 4562
" />
</g>
<g style="fill:#000000; fill-opacity:0.0; 
stroke:#000000; stroke-width:39.3701; stroke-opacity:1; 
stroke-linecap:round; stroke-linejoin:round;">
</g>
<g style="fill:#000000; fill-opacity:0.0; 
stroke:#000000; stroke-width:59.0551; stroke-opacity:1; 
stroke-linecap:round; stroke-linejoin:round;">
<text x="53149.6" y="4586.61"
textLength="546.494" font-size="682.415" lengthAdjust="spacingAndGlyphs"
text-anchor="start" opacity="0">3</text>
<path d="M53252 4050
L53569 4050
L53398 4245
L53471 4245
L53520 4269
L53544 4294
L53569 4342
L53569 4464
L53544 4513
L53520 4537
L53471 4562
L53325 4562
L53276 4537
L53252 4513
" />
</g>
<g style="fill:#000000; fill-opacity:0.0; 
stroke:#000000; stroke-width:39.3701; stroke-opacity:1; 
stroke-linecap:round; stroke-linejoin:round;">
</g>
<g style="fill:#000000; fill-opacity:0.0; 
stroke:#000000; stroke-width:59.0551; stroke-opacity:1; 
stroke-linecap:round; stroke-linejoin:round;">
<text x="72834.6" y="4586.61"
textLength="546.494" font-size="682.415" lengthAdjust="spacingAndGlyphs"
text-anchor="start" opacity="0">4</text>
<path d="M73205 4221
L73205 4562
" />
<path d="M73083 4026
L72961 4391
L73278 4391
" />
</g>
<g style="fill:#000000; fill-opacity:0.0; 
stroke:#000000; stroke-width:39.3701; stroke-opacity:1; 
stroke-linecap:round; stroke-linejoin:round;">
</g>
<g style="fill:#000000; fill-opacity:0.0; 
stroke:#000000; stroke-width:59.0551; stroke-opacity:1; 
stroke-linecap:round; stroke-linejoin:round;">
<text x="92519.7" y="4586.61"
textLength="546.494" font-size="682.415" lengthAdjust="spacingAndGlyphs"
text-anchor="start" opacity="0">5</text>
<path d="M92914 4050
L92671 4050
L92646 4294
L92671 4269
L92719 4245
L92841 4245
L92890 4269
L92914 4294
L92939 4342
L92939 4464
L92914 4513
L92890 4537
L92841 4562
L92719 4562
L92671 4537
L92646 4513
" />
</g>
<g style="fill:#000000; fill-opacity:0.0; 
stroke:#000000; stroke-width:39.3701; stroke-opacity:1; 
stroke-linecap:round; stroke-linejoin:round;">
</g>
<g style="fill:#000000; fill-opacity:0.0; 
stroke:#000000; stroke-width:59.0551; stroke-opacity:1; 
stroke-linecap:round; stroke-linejoin:round;">
<text x="112205" y="4586.61"
textLength="546.494" font-size="682.415" lengthAdjust="spacingAndGlyphs"
text-anchor="start" opacity="0">6</text>
<path d="M112575 4050
L112477 4050
L112429 4074
L112404 4099
L112356 4172
L112331 4269
L112331 4464
L112356 4513
L112380 4537
L112429 4562
L112526 4562
L112575 4537
L112599 4513
L112624 4464
L112624 4342
L112599 4294
L112575 4269
L112526 4245
L112429 4245
L112380 4269
L112356 4294
L112331 4342
" />
</g>
<g style="fill:#000000; fill-opacity:0.0; 
stroke:#000000; stroke-width:39.3701; stroke-opacity:1; 
stroke-linecap:round; stroke-linejoin:round;">
</g>
<g style="fill:#000000; fill-opacity:0.0; 
stroke:#000000; stroke-width:59.0551; stroke-opacity:1; 
stroke-linecap:round; stroke-linejoin:round;">
<path d="M23622 77955
L23622 78742
" />
</g>
<g style="fill:#000000; fill-opacity:0.0; 
stroke:#000000; stroke-width:39.3701; stroke-opacity:1; 
stroke-linecap:round; stroke-linejoin:round;">
</g>
<g style="fill:#000000; fill-opacity:0.0; 
stroke:#000000; stroke-width:59.0551; stroke-opacity:1; 
stroke-linecap:round; stroke-linejoin:round;">
<path d="M43307 77955
L43307 78742
" />
</g>
<g style="fill:#000000; fill-opacity:0.0; 
stroke:#000000; stroke-width:39.3701; stroke-opacity:1; 
stroke-linecap:round; stroke-linejoin:round;">
</g>
<g style="fill:#000000; fill-opacity:0.0; 
stroke:#000000; stroke-width:59.0551; stroke-opacity:1; 
stroke-linecap:round; stroke-linejoin:round;">
<path d="M62992 77955
L62992 78742
" />
</g>
<g style="fill:#000000; fill-opacity:0.0; 
stroke:#000000; stroke-width:39.3701; stroke-opacity:1; 
stroke-linecap:round; stroke-linejoin:round;">
</g>
<g style="fill:#000000; fill-opacity:0.0; 
stroke:#000000; stroke-width:59.0551; stroke-opacity:1; 
stroke-linecap:round; stroke-linejoin:round;">
<path d="M82677 77955
L82677 78742
" />
</g>
<g style="fill:#000000; fill-opacity:0.0; 
stroke:#000000; stroke-width:39.3701; stroke-opacity:1; 
stroke-linecap:round; stroke-linejoin:round;">
</g>
<g style="fill:#000000; fill-opacity:0.0; 
stroke:#000000; stroke-width:59.0551; stroke-opacity:1; 
stroke-linecap:round; stroke-linejoin:round;">
<path d="M102362 77955
L102362 78742
" />
</g>
<g style="fill:#000000; fill-opacity:0.0; 
stroke:#000000; stroke-width:39.3701; stroke-opacity:1; 
stroke-linecap:round; stroke-linejoin:round;">
</g>
<g style="fill:#000000; fill-opacity:0.0; 
stroke:#000000; stroke-width:59.0551; stroke-opacity:1; 
stroke-linecap:round; stroke-linejoin:round;">
<text x="13779.5" y="78605.2"
textLength="546.494" font-size="682.415" lengthAdjust="spacingAndGlyphs"
text-anchor="start" opacity="0">1</text>
<path d="M14199 78580
L13906 78580
" />
<path d="M14052 78580
L14052 78069
L14004 78142
L13955 78190
L13906 78215
" />
</g>
<g style="fill:#000000; fill-opacity:0.0; 
stroke:#000000; stroke-width:39.3701; stroke-opacity:1; 
stroke-linecap:round; stroke-linejoin:round;">
</g>
<g style="fill:#000000; fill-opacity:0.0; 
stroke:#000000; stroke-width:59.0551; stroke-opacity:1; 
stroke-linecap:round; stroke-linejoin:round;">
<text x="33464.6" y="78605.2"
textLength="546.494" font-size="682.415" lengthAdjust="spacingAndGlyphs"
text-anchor="start" opacity="0">2</text>
<path d="M33591 78117
L33615 78093
L33664 78069
L33786 78069
L33835 78093
L33859 78117
L33884 78166
L33884 78215
L33859 78288
L33567 78580
L33884 78580
" />
</g>
<g style="fill:#000000; fill-opacity:0.0; 
stroke:#000000; stroke-width:39.3701; stroke-opacity:1; 
stroke-linecap:round; stroke-linejoin:round;">
</g>
<g style="fill:#000000; fill-opacity:0.0; 
stroke:#000000; stroke-width:59.0551; stroke-opacity:1; 
stroke-linecap:round; stroke-linejoin:round;">
<text x="53149.6" y="78605.2"
textLength="546.494" font-size="682.415" lengthAdjust="spacingAndGlyphs"
text-anchor="start" opacity="0">3</text>
<path d="M53252 78069
L53569 78069
L53398 78263
L53471 78263
L53520 78288
L53544 78312
L53569 78361
L53569 78483
L53544 78532
L53520 78556
L53471 78580
L53325 78580
L53276 78556
L53252 78532
" />
</g>
<g style="fill:#000000; fill-opacity:0.0; 
stroke:#000000; stroke-width:39.3701; stroke-opacity:1; 
stroke-linecap:round; stroke-linejoin:round;">
</g>
<g style="fill:#000000; fill-opacity:0.0; 
stroke:#000000; stroke-width:59.0551; stroke-opacity:1; 
stroke-linecap:round; stroke-linejoin:round;">
<text x="72834.6" y="78605.2"
textLength="546.494" font-size="682.415" lengthAdjust="spacingAndGlyphs"
text-anchor="start" opacity="0">4</text>
<path d="M73205 78239
L73205 78580
" />
<path d="M73083 78044
L72961 78410
L73278 78410
" />
</g>
<g style="fill:#000000; fill-opacity:0.0; 
stroke:#000000; stroke-width:39.3701; stroke-opacity:1; 
stroke-linecap:round; stroke-linejoin:round;">
</g>
<g style="fill:#000000; fill-opacity:0.0; 
stroke:#000000; stroke-width:59.0551; stroke-opacity:1; 
stroke-linecap:round; stroke-linejoin:round;">
<text x="92519.7" y="78605.2"
textLength="546.494" font-size="682.415" lengthAdjust="spacingAndGlyphs"
text-anchor="start" opacity="0">5</text>
<path d="M92914 78069
L92671 78069
L92646 78312
L92671 78288
L92719 78263
L92841 78263
L92890 78288
L92914 78312
L92939 78361
L92939 78483
L92914 78532
L92890 78556
L92841 78580
L92719 78580
L92671 78556
L92646 78532
" />
</g>
<g style="fill:#000000; fill-opacity:0.0; 
stroke:#000000; stroke-width:39.3701; stroke-opacity:1; 
stroke-linecap:round; stroke-linejoin:round;">
</g>
<g style="fill:#000000; fill-opacity:0.0; 
stroke:#000000; stroke-width:59.0551; stroke-opacity:1; 
stroke-linecap:round; stroke-linejoin:round;">
<text x="112205" y="78605.2"
textLength="546.494" font-size="682.415" lengthAdjust="spacingAndGlyphs"
text-anchor="start" opacity="0">6</text>
<path d="M112575 78069
L112477 78069
L112429 78093
L112404 78117
L112356 78190
L112331 78288
L112331 78483
L112356 78532
L112380 78556
L112429 78580
L112526 78580
L112575 78556
L112599 78532
L112624 78483
L112624 78361
L112599 78312
L112575 78288
L112526 78263
L112429 78263
L112380 78288
L112356 78312
L112331 78361
" />
</g>
<g style="fill:#000000; fill-opacity:0.0; 
stroke:#000000; stroke-width:39.3701; stroke-opacity:1; 
stroke-linecap:round; stroke-linejoin:round;">
</g>
<g style="fill:#000000; fill-opacity:0.0; 
stroke:#000000; stroke-width:59.0551; stroke-opacity:1; 
stroke-linecap:round; stroke-linejoin:round;">
<path d="M3937 23622
L4724 23622
" />
</g>
<g style="fill:#000000; fill-opacity:0.0; 
stroke:#000000; stroke-width:39.3701; stroke-opacity:1; 
stroke-linecap:round; stroke-linejoin:round;">
</g>
<g style="fill:#000000; fill-opacity:0.0; 
stroke:#000000; stroke-width:59.0551; stroke-opacity:1; 
stroke-linecap:round; stroke-linejoin:round;">
<path d="M3937 43307
L4724 43307
" />
</g>
<g style="fill:#000000; fill-opacity:0.0; 
stroke:#000000; stroke-width:39.3701; stroke-opacity:1; 
stroke-linecap:round; stroke-linejoin:round;">
</g>
<g style="fill:#000000; fill-opacity:0.0; 
stroke:#000000; stroke-width:59.0551; stroke-opacity:1; 
stroke-linecap:round; stroke-linejoin:round;">
<path d="M3937 62992
L4724 62992
" />
</g>
<g style="fill:#000000; fill-opacity:0.0; 
stroke:#000000; stroke-width:39.3701; stroke-opacity:1; 
stroke-linecap:round; stroke-linejoin:round;">
</g>
<g style="fill:#000000; fill-opacity:0.0; 
stroke:#000000; stroke-width:59.0551; stroke-opacity:1; 
stroke-linecap:round; stroke-linejoin:round;">
<text x="4330.71" y="14035.4"
textLength="497.75" font-size="682.415" lengthAdjust="spacingAndGlyphs"
text-anchor="middle" opacity="0">A</text>
<path d="M4208 13864
L4452 13864
" />
<path d="M4160 14011
L4330 13499
L4501 14011
" />
</g>
<g style="fill:#000000; fill-opacity:0.0; 
stroke:#000000; stroke-width:39.3701; stroke-opacity:1; 
stroke-linecap:round; stroke-linejoin:round;">
</g>
<g style="fill:#000000; fill-opacity:0.0; 
stroke:#000000; stroke-width:59.0551; stroke-opacity:1; 
stroke-linecap:round; stroke-linejoin:round;">
<text x="4330.71" y="33720.5"
textLength="570.866" font-size="682.415" lengthAdjust="spacingAndGlyphs"
text-anchor="middle" opacity="0">B</text>
<path d="M4367 33428
L4440 33452
L4464 33476
L4489 33525
L4489 33598
L4464 33647
L4440 33671
L4391 33696
L4196 33696
L4196 33184
L4367 33184
L4416 33208
L4440 33233
L4464 33281
L4464 33330
L4440 33379
L4416 33403
L4367 33428
L4196 33428
" />
</g>
<g style="fill:#000000; fill-opacity:0.0; 
stroke:#000000; stroke-width:39.3701; stroke-opacity:1; 
stroke-linecap:round; stroke-linejoin:round;">
</g>
<g style="fill:#000000; fill-opacity:0.0; 
stroke:#000000; stroke-width:59.0551; stroke-opacity:1; 
stroke-linecap:round; stroke-linejoin:round;">
<text x="4330.71" y="53405.5"
textLength="570.866" font-size="682.415" lengthAdjust="spacingAndGlyphs"
text-anchor="middle" opacity="0">C</text>
<path d="M4489 53332
L4464 53356
L4391 53381
L4342 53381
L4269 53356
L4221 53308
L4196 53259
L4172 53161
L4172 53088
L4196 52991
L4221 52942
L4269 52893
L4342 52869
L4391 52869
L4464 52893
L4489 52918
" />
</g>
<g style="fill:#000000; fill-opacity:0.0; 
stroke:#000000; stroke-width:39.3701; stroke-opacity:1; 
stroke-linecap:round; stroke-linejoin:round;">
</g>
<g style="fill:#000000; fill-opacity:0.0; 
stroke:#000000; stroke-width:59.0551; stroke-opacity:1; 
stroke-linecap:round; stroke-linejoin:round;">
<text x="4330.71" y="73090.6"
textLength="570.866" font-size="682.415" lengthAdjust="spacingAndGlyphs"
text-anchor="middle" opacity="0">D</text>
<path d="M4196 73066
L4196 72554
L4318 72554
L4391 72578
L4440 72627
L4464 72676
L4489 72773
L4489 72846
L4464 72944
L4440 72993
L4391 73041
L4318 73066
L4196 73066
" />
</g>
<g style="fill:#000000; fill-opacity:0.0; 
stroke:#000000; stroke-width:39.3701; stroke-opacity:1; 
stroke-linecap:round; stroke-linejoin:round;">
</g>
<g style="fill:#000000; fill-opacity:0.0; 
stroke:#000000; stroke-width:59.0551; stroke-opacity:1; 
stroke-linecap:round; stroke-linejoin:round;">
<path d="M112992 23622
L112205 23622
" />
</g>
<g style="fill:#000000; fill-opacity:0.0; 
stroke:#000000; stroke-width:39.3701; stroke-opacity:1; 
stroke-linecap:round; stroke-linejoin:round;">
</g>
<g style="fill:#000000; fill-opacity:0.0; 
stroke:#000000; stroke-width:59.0551; stroke-opacity:1; 
stroke-linecap:round; stroke-linejoin:round;">
<path d="M112992 43307
L112205 43307
" />
</g>
<g style="fill:#000000; fill-opacity:0.0; 
stroke:#000000; stroke-width:39.3701; stroke-opacity:1; 
stroke-linecap:round; stroke-linejoin:round;">
</g>
<g style="fill:#000000; fill-opacity:0.0; 
stroke:#000000; stroke-width:59.0551; stroke-opacity:1; 
stroke-linecap:round; stroke-linejoin:round;">
<path d="M112992 62992
L112205 62992
" />
</g>
<g style="fill:#000000; fill-opacity:0.0; 
stroke:#000000; stroke-width:39.3701; stroke-opacity:1; 
stroke-linecap:round; stroke-linejoin:round;">
</g>
<g style="fill:#000000; fill-opacity:0.0; 
stroke:#000000; stroke-width:59.0551; stroke-opacity:1; 
stroke-linecap:round; stroke-linejoin:round;">
<text x="112599" y="14035.4"
textLength="497.75" font-size="682.415" lengthAdjust="spacingAndGlyphs"
text-anchor="middle" opacity="0">A</text>
<path d="M112477 13864
L112721 13864
" />
<path d="M112428 14011
L112599 13499
L112769 14011
" />
</g>
<g style="fill:#000000; fill-opacity:0.0; 
stroke:#000000; stroke-width:39.3701; stroke-opacity:1; 
stroke-linecap:round; stroke-linejoin:round;">
</g>
<g style="fill:#000000; fill-opacity:0.0; 
stroke:#000000; stroke-width:59.0551; stroke-opacity:1; 
stroke-linecap:round; stroke-linejoin:round;">
<text x="112599" y="33720.5"
textLength="570.866" font-size="682.415" lengthAdjust="spacingAndGlyphs"
text-anchor="middle" opacity="0">B</text>
<path d="M112635 33428
L112708 33452
L112733 33476
L112757 33525
L112757 33598
L112733 33647
L112708 33671
L112660 33696
L112465 33696
L112465 33184
L112635 33184
L112684 33208
L112708 33233
L112733 33281
L112733 33330
L112708 33379
L112684 33403
L112635 33428
L112465 33428
" />
</g>
<g style="fill:#000000; fill-opacity:0.0; 
stroke:#000000; stroke-width:39.3701; stroke-opacity:1; 
stroke-linecap:round; stroke-linejoin:round;">
</g>
<g style="fill:#000000; fill-opacity:0.0; 
stroke:#000000; stroke-width:59.0551; stroke-opacity:1; 
stroke-linecap:round; stroke-linejoin:round;">
<text x="112599" y="53405.5"
textLength="570.866" font-size="682.415" lengthAdjust="spacingAndGlyphs"
text-anchor="middle" opacity="0">C</text>
<path d="M112757 53332
L112733 53356
L112660 53381
L112611 53381
L112538 53356
L112489 53308
L112465 53259
L112440 53161
L112440 53088
L112465 52991
L112489 52942
L112538 52893
L112611 52869
L112660 52869
L112733 52893
L112757 52918
" />
</g>
<g style="fill:#000000; fill-opacity:0.0; 
stroke:#000000; stroke-width:39.3701; stroke-opacity:1; 
stroke-linecap:round; stroke-linejoin:round;">
</g>
<g style="fill:#000000; fill-opacity:0.0; 
stroke:#000000; stroke-width:59.0551; stroke-opacity:1; 
stroke-linecap:round; stroke-linejoin:round;">
<text x="112599" y="73090.6"
textLength="570.866" font-size="682.415" lengthAdjust="spacingAndGlyphs"
text-anchor="middle" opacity="0">D</text>
<path d="M112465 73066
L112465 72554
L112587 72554
L112660 72578
L112708 72627
L112733 72676
L112757 72773
L112757 72846
L112733 72944
L112708 72993
L112660 73041
L112587 73066
L112465 73066
" />
</g>
<g style="fill:#000000; fill-opacity:0.0; 
stroke:#000000; stroke-width:39.3701; stroke-opacity:1; 
stroke-linecap:round; stroke-linejoin:round;">
</g>
<g style="fill:#000000; fill-opacity:0.0; 
stroke:#000000; stroke-width:59.0551; stroke-opacity:1; 
stroke-linecap:round; stroke-linejoin:round;">
<text x="78741" y="76321.7"
textLength="2758.72" font-size="787.402" lengthAdjust="spacingAndGlyphs"
text-anchor="start" opacity="0">Date: </text>
<path d="M78911 76293
L78911 75703
L79051 75703
L79136 75731
L79192 75787
L79220 75843
L79248 75956
L79248 76040
L79220 76153
L79192 76209
L79136 76265
L79051 76293
L78911 76293
" />
<path d="M79754 76293
L79754 75984
L79726 75928
L79670 75899
L79557 75899
L79501 75928
" />
<path d="M79754 76265
L79698 76293
L79557 76293
L79501 76265
L79473 76209
L79473 76153
L79501 76096
L79557 76068
L79698 76068
L79754 76040
" />
<path d="M79951 75899
L80176 75899
" />
<path d="M80036 75703
L80036 76209
L80064 76265
L80120 76293
L80176 76293
" />
<path d="M80598 76265
L80542 76293
L80429 76293
L80373 76265
L80345 76209
L80345 75984
L80373 75928
L80429 75899
L80542 75899
L80598 75928
L80626 75984
L80626 76040
L80345 76096
" />
<path d="M80879 76237
L80907 76265
L80879 76293
L80851 76265
L80879 76237
L80879 76293
" />
<path d="M80879 75928
L80907 75956
L80879 75984
L80851 75956
L80879 75928
L80879 75984
" />
</g>
<g style="fill:#000000; fill-opacity:0.0; 
stroke:#000000; stroke-width:39.3701; stroke-opacity:1; 
stroke-linecap:round; stroke-linejoin:round;">
</g>
<g style="fill:#000000; fill-opacity:0.0; 
stroke:#000000; stroke-width:59.0551; stroke-opacity:1; 
stroke-linecap:round; stroke-linejoin:round;">
<path d="M69685 76577
L112205 76577
" />
</g>
<g style="fill:#000000; fill-opacity:0.0; 
stroke:#000000; stroke-width:39.3701; stroke-opacity:1; 
stroke-linecap:round; stroke-linejoin:round;">
</g>
<g style="fill:#000000; fill-opacity:0.0; 
stroke:#000000; stroke-width:59.0551; stroke-opacity:1; 
stroke-linecap:round; stroke-linejoin:round;">
<text x="70079.6" y="77424.1"
textLength="13529.2" font-size="787.402" lengthAdjust="spacingAndGlyphs"
text-anchor="start" opacity="0">KiCad E.D.A.  kicad (5.1.5)-3</text>
<path d="M70249 77395
L70249 76805
" />
<path d="M70587 77395
L70334 77058
" />
<path d="M70587 76805
L70249 77142
" />
<path d="M70840 77395
L70840 77002
" />
<path d="M70840 76805
L70812 76833
L70840 76861
L70868 76833
L70840 76805
L70840 76861
" />
<path d="M71458 77339
L71430 77367
L71346 77395
L71290 77395
L71205 77367
L71149 77311
L71121 77255
L71093 77142
L71093 77058
L71121 76946
L71149 76889
L71205 76833
L71290 76805
L71346 76805
L71430 76833
L71458 76861
" />
<path d="M71965 77395
L71965 77086
L71937 77030
L71880 77002
L71768 77002
L71712 77030
" />
<path d="M71965 77367
L71908 77395
L71768 77395
L71712 77367
L71683 77311
L71683 77255
L71712 77199
L71768 77171
L71908 77171
L71965 77142
" />
<path d="M72499 77395
L72499 76805
" />
<path d="M72499 77367
L72443 77395
L72330 77395
L72274 77367
L72246 77339
L72218 77283
L72218 77114
L72246 77058
L72274 77030
L72330 77002
L72443 77002
L72499 77030
" />
<path d="M73230 77086
L73427 77086
" />
<path d="M73511 77395
L73230 77395
L73230 76805
L73511 76805
" />
<path d="M73764 77339
L73793 77367
L73764 77395
L73736 77367
L73764 77339
L73764 77395
" />
<path d="M74046 77395
L74046 76805
L74186 76805
L74271 76833
L74327 76889
L74355 76946
L74383 77058
L74383 77142
L74355 77255
L74327 77311
L74271 77367
L74186 77395
L74046 77395
" />
<path d="M74636 77339
L74664 77367
L74636 77395
L74608 77367
L74636 77339
L74636 77395
" />
<path d="M74889 77227
L75171 77227
" />
<path d="M74833 77395
L75030 76805
L75227 77395
" />
<path d="M75424 77339
L75452 77367
L75424 77395
L75395 77367
L75424 77339
L75424 77395
" />
<path d="M76605 77395
L76605 76805
" />
<path d="M76661 77171
L76830 77395
" />
<path d="M76830 77002
L76605 77227
" />
<path d="M77083 77395
L77083 77002
" />
<path d="M77083 76805
L77055 76833
L77083 76861
L77111 76833
L77083 76805
L77083 76861
" />
<path d="M77617 77367
L77561 77395
L77448 77395
L77392 77367
L77364 77339
L77336 77283
L77336 77114
L77364 77058
L77392 77030
L77448 77002
L77561 77002
L77617 77030
" />
<path d="M78123 77395
L78123 77086
L78095 77030
L78039 77002
L77926 77002
L77870 77030
" />
<path d="M78123 77367
L78067 77395
L77926 77395
L77870 77367
L77842 77311
L77842 77255
L77870 77199
L77926 77171
L78067 77171
L78123 77142
" />
<path d="M78658 77395
L78658 76805
" />
<path d="M78658 77367
L78601 77395
L78489 77395
L78433 77367
L78404 77339
L78376 77283
L78376 77114
L78404 77058
L78433 77030
L78489 77002
L78601 77002
L78658 77030
" />
<path d="M79557 77620
L79529 77592
L79473 77508
L79445 77452
L79417 77367
L79389 77227
L79389 77114
L79417 76974
L79445 76889
L79473 76833
L79529 76749
L79557 76721
" />
<path d="M80064 76805
L79782 76805
L79754 77086
L79782 77058
L79839 77030
L79979 77030
L80036 77058
L80064 77086
L80092 77142
L80092 77283
L80064 77339
L80036 77367
L79979 77395
L79839 77395
L79782 77367
L79754 77339
" />
<path d="M80345 77339
L80373 77367
L80345 77395
L80317 77367
L80345 77339
L80345 77395
" />
<path d="M80935 77395
L80598 77395
" />
<path d="M80767 77395
L80767 76805
L80710 76889
L80654 76946
L80598 76974
" />
<path d="M81188 77339
L81217 77367
L81188 77395
L81160 77367
L81188 77339
L81188 77395
" />
<path d="M81751 76805
L81470 76805
L81442 77086
L81470 77058
L81526 77030
L81667 77030
L81723 77058
L81751 77086
L81779 77142
L81779 77283
L81751 77339
L81723 77367
L81667 77395
L81526 77395
L81470 77367
L81442 77339
" />
<path d="M81976 77620
L82004 77592
L82060 77508
L82088 77452
L82117 77367
L82145 77227
L82145 77114
L82117 76974
L82088 76889
L82060 76833
L82004 76749
L81976 76721
" />
<path d="M82426 77171
L82876 77171
" />
<path d="M83101 76805
L83466 76805
L83269 77030
L83354 77030
L83410 77058
L83438 77086
L83466 77142
L83466 77283
L83438 77339
L83410 77367
L83354 77395
L83185 77395
L83129 77367
L83101 77339
" />
</g>
<g style="fill:#000000; fill-opacity:0.0; 
stroke:#000000; stroke-width:39.3701; stroke-opacity:1; 
stroke-linecap:round; stroke-linejoin:round;">
</g>
<g style="fill:#000000; fill-opacity:0.0; 
stroke:#000000; stroke-width:59.0551; stroke-opacity:1; 
stroke-linecap:round; stroke-linejoin:round;">
<path d="M69685 75396
L112205 75396
" />
</g>
<g style="fill:#000000; fill-opacity:0.0; 
stroke:#000000; stroke-width:39.3701; stroke-opacity:1; 
stroke-linecap:round; stroke-linejoin:round;">
</g>
<g style="fill:#000000; fill-opacity:0.0; 
stroke:#000000; stroke-width:118.11; stroke-opacity:1; 
stroke-linecap:round; stroke-linejoin:round;">
<text x="103544" y="76321.7"
textLength="2336.9" font-size="787.402" lengthAdjust="spacingAndGlyphs"
text-anchor="start" opacity="0">Rev: </text>
<path d="M104099 76293
L103902 76012
" />
<path d="M103761 76293
L103761 75703
L103986 75703
L104042 75731
L104070 75759
L104099 75815
L104099 75899
L104070 75956
L104042 75984
L103986 76012
L103761 76012
" />
<path d="M104577 76265
L104520 76293
L104408 76293
L104352 76265
L104323 76209
L104323 75984
L104352 75928
L104408 75899
L104520 75899
L104577 75928
L104605 75984
L104605 76040
L104323 76096
" />
<path d="M104802 75899
L104942 76293
L105083 75899
" />
<path d="M105308 76237
L105336 76265
L105308 76293
L105280 76265
L105308 76237
L105308 76293
" />
<path d="M105308 75928
L105336 75956
L105308 75984
L105280 75956
L105308 75928
L105308 75984
" />
</g>
<g style="fill:#000000; fill-opacity:0.0; 
stroke:#000000; stroke-width:39.3701; stroke-opacity:1; 
stroke-linecap:round; stroke-linejoin:round;">
</g>
<g style="fill:#000000; fill-opacity:0.0; 
stroke:#000000; stroke-width:59.0551; stroke-opacity:1; 
stroke-linecap:round; stroke-linejoin:round;">
<text x="70079.6" y="76321.7"
textLength="3781.21" font-size="787.402" lengthAdjust="spacingAndGlyphs"
text-anchor="start" opacity="0">Size: A4</text>
<path d="M70221 76265
L70305 76293
L70446 76293
L70502 76265
L70530 76237
L70559 76181
L70559 76124
L70530 76068
L70502 76040
L70446 76012
L70334 75984
L70277 75956
L70249 75928
L70221 75871
L70221 75815
L70249 75759
L70277 75731
L70334 75703
L70474 75703
L70559 75731
" />
<path d="M70812 76293
L70812 75899
" />
<path d="M70812 75703
L70784 75731
L70812 75759
L70840 75731
L70812 75703
L70812 75759
" />
<path d="M71037 75899
L71346 75899
L71037 76293
L71346 76293
" />
<path d="M71796 76265
L71740 76293
L71627 76293
L71571 76265
L71543 76209
L71543 75984
L71571 75928
L71627 75899
L71740 75899
L71796 75928
L71824 75984
L71824 76040
L71543 76096
" />
<path d="M72077 76237
L72105 76265
L72077 76293
L72049 76265
L72077 76237
L72077 76293
" />
<path d="M72077 75928
L72105 75956
L72077 75984
L72049 75956
L72077 75928
L72077 75984
" />
<path d="M72780 76124
L73061 76124
" />
<path d="M72724 76293
L72921 75703
L73118 76293
" />
<path d="M73568 75899
L73568 76293
" />
<path d="M73427 75674
L73286 76096
L73652 76096
" />
</g>
<g style="fill:#000000; fill-opacity:0.0; 
stroke:#000000; stroke-width:39.3701; stroke-opacity:1; 
stroke-linecap:round; stroke-linejoin:round;">
</g>
<g style="fill:#000000; fill-opacity:0.0; 
stroke:#000000; stroke-width:59.0551; stroke-opacity:1; 
stroke-linecap:round; stroke-linejoin:round;">
<text x="103544" y="77424.1"
textLength="3349.27" font-size="787.402" lengthAdjust="spacingAndGlyphs"
text-anchor="start" opacity="0">Id: 1/1</text>
<path d="M103714 77395
L103714 76805
" />
<path d="M104248 77395
L104248 76805
" />
<path d="M104248 77367
L104192 77395
L104079 77395
L104023 77367
L103995 77339
L103967 77283
L103967 77114
L103995 77058
L104023 77030
L104079 77002
L104192 77002
L104248 77030
" />
<path d="M104529 77339
L104557 77367
L104529 77395
L104501 77367
L104529 77339
L104529 77395
" />
<path d="M104529 77030
L104557 77058
L104529 77086
L104501 77058
L104529 77030
L104529 77086
" />
<path d="M105570 77395
L105232 77395
" />
<path d="M105401 77395
L105401 76805
L105345 76889
L105289 76946
L105232 76974
" />
<path d="M106245 76777
L105739 77536
" />
<path d="M106751 77395
L106413 77395
" />
<path d="M106582 77395
L106582 76805
L106526 76889
L106470 76946
L106413 76974
" />
</g>
<g style="fill:#000000; fill-opacity:0.0; 
stroke:#000000; stroke-width:39.3701; stroke-opacity:1; 
stroke-linecap:round; stroke-linejoin:round;">
</g>
<g style="fill:#000000; fill-opacity:0.0; 
stroke:#000000; stroke-width:59.0551; stroke-opacity:1; 
stroke-linecap:round; stroke-linejoin:round;">
<path d="M69685 73821
L112205 73821
" />
</g>
<g style="fill:#000000; fill-opacity:0.0; 
stroke:#000000; stroke-width:39.3701; stroke-opacity:1; 
stroke-linecap:round; stroke-linejoin:round;">
</g>
<g style="fill:#000000; fill-opacity:0.0; 
stroke:#000000; stroke-width:157.48; stroke-opacity:1; 
stroke-linecap:round; stroke-linejoin:round;">
<text x="70079.6" y="74924.1"
textLength="3701.14" font-size="1049.87" lengthAdjust="spacingAndGlyphs"
text-anchor="start" opacity="0">Title: </text>
<path d="M70360 74099
L70810 74099
" />
<path d="M70486 74886
L70585 74099
" />
<path d="M70974 74886
L71039 74361
" />
<path d="M71072 74099
L71030 74136
L71063 74174
L71105 74136
L71072 74099
L71063 74174
" />
<path d="M71302 74361
L71602 74361
" />
<path d="M71447 74099
L71363 74774
L71391 74849
L71461 74886
L71536 74886
" />
<path d="M71911 74886
L71841 74849
L71813 74774
L71897 74099
" />
<path d="M72516 74849
L72436 74886
L72286 74886
L72216 74849
L72187 74774
L72225 74474
L72272 74399
L72352 74361
L72501 74361
L72572 74399
L72600 74474
L72591 74549
L72206 74624
" />
<path d="M72895 74811
L72928 74849
L72886 74886
L72853 74849
L72895 74811
L72886 74886
" />
<path d="M72947 74399
L72980 74436
L72937 74474
L72905 74436
L72947 74399
L72937 74474
" />
</g>
<g style="fill:#000000; fill-opacity:0.0; 
stroke:#000000; stroke-width:39.3701; stroke-opacity:1; 
stroke-linecap:round; stroke-linejoin:round;">
</g>
<g style="fill:#000000; fill-opacity:0.0; 
stroke:#000000; stroke-width:59.0551; stroke-opacity:1; 
stroke-linecap:round; stroke-linejoin:round;">
<text x="70079.6" y="73408.3"
textLength="13478.1" font-size="787.402" lengthAdjust="spacingAndGlyphs"
text-anchor="start" opacity="0">File: SofleKeyboard.kicad_pcb</text>
<path d="M70446 73070
L70249 73070
" />
<path d="M70249 73380
L70249 72789
L70530 72789
" />
<path d="M70755 73380
L70755 72986
" />
<path d="M70755 72789
L70727 72817
L70755 72845
L70784 72817
L70755 72789
L70755 72845
" />
<path d="M71121 73380
L71065 73352
L71037 73295
L71037 72789
" />
<path d="M71571 73352
L71515 73380
L71402 73380
L71346 73352
L71318 73295
L71318 73070
L71346 73014
L71402 72986
L71515 72986
L71571 73014
L71599 73070
L71599 73127
L71318 73183
" />
<path d="M71852 73323
L71880 73352
L71852 73380
L71824 73352
L71852 73323
L71852 73380
" />
<path d="M71852 73014
L71880 73042
L71852 73070
L71824 73042
L71852 73014
L71852 73070
" />
<path d="M72555 73352
L72640 73380
L72780 73380
L72836 73352
L72865 73323
L72893 73267
L72893 73211
L72865 73155
L72836 73127
L72780 73099
L72668 73070
L72611 73042
L72583 73014
L72555 72958
L72555 72902
L72583 72845
L72611 72817
L72668 72789
L72808 72789
L72893 72817
" />
<path d="M73230 73380
L73174 73352
L73146 73323
L73118 73267
L73118 73099
L73146 73042
L73174 73014
L73230 72986
L73314 72986
L73371 73014
L73399 73042
L73427 73099
L73427 73267
L73399 73323
L73371 73352
L73314 73380
L73230 73380
" />
<path d="M73596 72986
L73821 72986
" />
<path d="M73680 73380
L73680 72874
L73708 72817
L73764 72789
L73821 72789
" />
<path d="M74102 73380
L74046 73352
L74018 73295
L74018 72789
" />
<path d="M74552 73352
L74496 73380
L74383 73380
L74327 73352
L74299 73295
L74299 73070
L74327 73014
L74383 72986
L74496 72986
L74552 73014
L74580 73070
L74580 73127
L74299 73183
" />
<path d="M74833 73380
L74833 72789
" />
<path d="M75171 73380
L74917 73042
" />
<path d="M75171 72789
L74833 73127
" />
<path d="M75649 73352
L75592 73380
L75480 73380
L75424 73352
L75395 73295
L75395 73070
L75424 73014
L75480 72986
L75592 72986
L75649 73014
L75677 73070
L75677 73127
L75395 73183
" />
<path d="M75874 72986
L76014 73380
" />
<path d="M76155 72986
L76014 73380
L75958 73520
L75930 73548
L75874 73577
" />
<path d="M76380 73380
L76380 72789
" />
<path d="M76380 73014
L76436 72986
L76548 72986
L76605 73014
L76633 73042
L76661 73099
L76661 73267
L76633 73323
L76605 73352
L76548 73380
L76436 73380
L76380 73352
" />
<path d="M76998 73380
L76942 73352
L76914 73323
L76886 73267
L76886 73099
L76914 73042
L76942 73014
L76998 72986
L77083 72986
L77139 73014
L77167 73042
L77195 73099
L77195 73267
L77167 73323
L77139 73352
L77083 73380
L76998 73380
" />
<path d="M77701 73380
L77701 73070
L77673 73014
L77617 72986
L77505 72986
L77448 73014
" />
<path d="M77701 73352
L77645 73380
L77505 73380
L77448 73352
L77420 73295
L77420 73239
L77448 73183
L77505 73155
L77645 73155
L77701 73127
" />
<path d="M77983 73380
L77983 72986
" />
<path d="M77983 73099
L78011 73042
L78039 73014
L78095 72986
L78151 72986
" />
<path d="M78601 73380
L78601 72789
" />
<path d="M78601 73352
L78545 73380
L78433 73380
L78376 73352
L78348 73323
L78320 73267
L78320 73099
L78348 73042
L78376 73014
L78433 72986
L78545 72986
L78601 73014
" />
<path d="M78883 73323
L78911 73352
L78883 73380
L78854 73352
L78883 73323
L78883 73380
" />
<path d="M79164 73380
L79164 72789
" />
<path d="M79220 73155
L79389 73380
" />
<path d="M79389 72986
L79164 73211
" />
<path d="M79642 73380
L79642 72986
" />
<path d="M79642 72789
L79614 72817
L79642 72845
L79670 72817
L79642 72789
L79642 72845
" />
<path d="M80176 73352
L80120 73380
L80007 73380
L79951 73352
L79923 73323
L79895 73267
L79895 73099
L79923 73042
L79951 73014
L80007 72986
L80120 72986
L80176 73014
" />
<path d="M80682 73380
L80682 73070
L80654 73014
L80598 72986
L80485 72986
L80429 73014
" />
<path d="M80682 73352
L80626 73380
L80485 73380
L80429 73352
L80401 73295
L80401 73239
L80429 73183
L80485 73155
L80626 73155
L80682 73127
" />
<path d="M81217 73380
L81217 72789
" />
<path d="M81217 73352
L81160 73380
L81048 73380
L80992 73352
L80964 73323
L80935 73267
L80935 73099
L80964 73042
L80992 73014
L81048 72986
L81160 72986
L81217 73014
" />
<path d="M81357 73436
L81807 73436
" />
<path d="M81948 72986
L81948 73577
" />
<path d="M81948 73014
L82004 72986
L82117 72986
L82173 73014
L82201 73042
L82229 73099
L82229 73267
L82201 73323
L82173 73352
L82117 73380
L82004 73380
L81948 73352
" />
<path d="M82735 73352
L82679 73380
L82566 73380
L82510 73352
L82482 73323
L82454 73267
L82454 73099
L82482 73042
L82510 73014
L82566 72986
L82679 72986
L82735 73014
" />
<path d="M82988 73380
L82988 72789
" />
<path d="M82988 73014
L83045 72986
L83157 72986
L83213 73014
L83241 73042
L83269 73099
L83269 73267
L83241 73323
L83213 73352
L83157 73380
L83045 73380
L82988 73352
" />
</g>
<g style="fill:#000000; fill-opacity:0.0; 
stroke:#000000; stroke-width:39.3701; stroke-opacity:1; 
stroke-linecap:round; stroke-linejoin:round;">
</g>
<g style="fill:#000000; fill-opacity:0.0; 
stroke:#000000; stroke-width:59.0551; stroke-opacity:1; 
stroke-linecap:round; stroke-linejoin:round;">
<path d="M69685 71459
L112205 71459
" />
</g>
<g style="fill:#000000; fill-opacity:0.0; 
stroke:#000000; stroke-width:39.3701; stroke-opacity:1; 
stroke-linecap:round; stroke-linejoin:round;">
</g>
<g style="fill:#000000; fill-opacity:0.0; 
stroke:#000000; stroke-width:59.0551; stroke-opacity:1; 
stroke-linecap:round; stroke-linejoin:round;">
<text x="70079.6" y="72345.4"
textLength="3236.78" font-size="787.402" lengthAdjust="spacingAndGlyphs"
text-anchor="start" opacity="0">Sheet: </text>
<path d="M70221 72289
L70305 72317
L70446 72317
L70502 72289
L70530 72260
L70559 72204
L70559 72148
L70530 72092
L70502 72064
L70446 72036
L70334 72007
L70277 71979
L70249 71951
L70221 71895
L70221 71839
L70249 71782
L70277 71754
L70334 71726
L70474 71726
L70559 71754
" />
<path d="M70812 72317
L70812 71726
" />
<path d="M71065 72317
L71065 72007
L71037 71951
L70980 71923
L70896 71923
L70840 71951
L70812 71979
" />
<path d="M71571 72289
L71515 72317
L71402 72317
L71346 72289
L71318 72232
L71318 72007
L71346 71951
L71402 71923
L71515 71923
L71571 71951
L71599 72007
L71599 72064
L71318 72120
" />
<path d="M72077 72289
L72021 72317
L71908 72317
L71852 72289
L71824 72232
L71824 72007
L71852 71951
L71908 71923
L72021 71923
L72077 71951
L72105 72007
L72105 72064
L71824 72120
" />
<path d="M72274 71923
L72499 71923
" />
<path d="M72358 71726
L72358 72232
L72386 72289
L72443 72317
L72499 72317
" />
<path d="M72696 72260
L72724 72289
L72696 72317
L72668 72289
L72696 72260
L72696 72317
" />
<path d="M72696 71951
L72724 71979
L72696 72007
L72668 71979
L72696 71951
L72696 72007
" />
</g>
<g style="fill:#000000; fill-opacity:0.0; 
stroke:#000000; stroke-width:39.3701; stroke-opacity:1; 
stroke-linecap:round; stroke-linejoin:round;">
</g>
<g style="fill:#000000; fill-opacity:0.0; 
stroke:#000000; stroke-width:59.0551; stroke-opacity:1; 
stroke-linecap:round; stroke-linejoin:round;">
<path d="M77559 75396
L77559 76577
" />
</g>
<g style="fill:#000000; fill-opacity:0.0; 
stroke:#000000; stroke-width:39.3701; stroke-opacity:1; 
stroke-linecap:round; stroke-linejoin:round;">
</g>
<g style="fill:#000000; fill-opacity:0.0; 
stroke:#000000; stroke-width:59.0551; stroke-opacity:1; 
stroke-linecap:round; stroke-linejoin:round;">
<path d="M102756 75396
L102756 77955
" />
</g>
<g style="fill:#C2C200; fill-opacity:0.0; 
stroke:#C2C200; stroke-width:59.0551; stroke-opacity:1; 
stroke-linecap:round; stroke-linejoin:round;">
</g>
<g style="fill:#C2C200; fill-opacity:0.0; 
stroke:#C2C200; stroke-width:39.3701; stroke-opacity:1; 
stroke-linecap:round; stroke-linejoin:round;">
<path d="M110093 12702
L110148 12758
" />
<path d="M56707 10195
L94142 10195
" />
<path d="M109850 43382
L109850 43382
" />
<path d="M102163 44147
L102132 44191
" />
<path d="M102132 44191
L98791 49678
" />
<path d="M56257 40973
L56254 40847
" />
<path d="M98791 49678
L98757 49726
" />
<path d="M56267 41099
L56257 40973
" />
<path d="M98757 49726
L98718 49769
" />
<path d="M102483 43975
L102429 43982
" />
<path d="M95010 10235
L95470 10280
" />
<path d="M110267 42930
L110259 43016
" />
<path d="M56530 10230
L56615 10204
" />
<path d="M98718 49769
L98674 49806
" />
<path d="M98674 49806
L98626 49837
" />
<path d="M56339 41469
L56309 41347
" />
<path d="M98626 49837
L98574 49862
" />
<path d="M102198 44106
L102163 44147
" />
<path d="M95470 10280
L95874 10334
" />
<path d="M62872 53148
L62806 53103
" />
<path d="M98574 49862
L98519 49880
" />
<path d="M76071 48050
L75891 48117
" />
<path d="M56615 10204
L56707 10195
" />
<path d="M75891 48117
L63261 53173
" />
<path d="M63261 53173
L63182 53196
" />
<path d="M98519 49880
L98462 49892
" />
<path d="M56254 40847
L56253 10648
" />
<path d="M110148 12758
L110194 12821
" />
<path d="M110028 12658
L110093 12702
" />
<path d="M56453 10272
L56530 10230
" />
<path d="M102328 44016
L102281 44041
" />
<path d="M63182 53196
L63101 53205
" />
<path d="M94548 10206
L95010 10235
" />
<path d="M63101 53205
L63021 53199
" />
<path d="M63021 53199
L62944 53180
" />
<path d="M62944 53180
L62872 53148
" />
<path d="M109850 43382
L102483 43975
" />
<path d="M76253 47992
L76071 48050
" />
<path d="M57395 43788
L57377 43754
" />
<path d="M109936 43367
L109850 43382
" />
<path d="M110197 43172
L110147 43238
" />
<path d="M83379 47829
L77388 47829
" />
<path d="M102377 43996
L102328 44016
" />
<path d="M77388 47829
L77196 47833
" />
<path d="M110228 12893
L110249 12970
" />
<path d="M56253 10648
L56262 10557
" />
<path d="M95874 10334
L109876 12604
" />
<path d="M77004 47847
L76814 47870
" />
<path d="M56262 10557
L56289 10472
" />
<path d="M62700 52978
L57395 43788
" />
<path d="M110249 12970
L110257 13051
" />
<path d="M109955 12624
L110028 12658
" />
<path d="M77196 47833
L77004 47847
" />
<path d="M110147 43238
L110086 43293
" />
<path d="M76814 47870
L76626 47901
" />
<path d="M76438 47942
L76253 47992
" />
<path d="M110259 43016
L110235 43098
" />
<path d="M83566 47832
L83379 47829
" />
<path d="M84854 48030
L84673 47983
" />
<path d="M110235 43098
L110197 43172
" />
<path d="M56330 10395
L56386 10327
" />
<path d="M56421 41708
L56377 41590
" />
<path d="M109876 12604
L109955 12624
" />
<path d="M110194 12821
L110228 12893
" />
<path d="M84673 47983
L84491 47942
" />
<path d="M84491 47942
L84308 47907
" />
<path d="M110015 43337
L109936 43367
" />
<path d="M84308 47907
L84124 47879
" />
<path d="M56377 41590
L56339 41469
" />
<path d="M56285 41224
L56267 41099
" />
<path d="M94142 10195
L94548 10206
" />
<path d="M84124 47879
L83938 47857
" />
<path d="M110257 13051
L110267 42930
" />
<path d="M83938 47857
L83753 47841
" />
<path d="M76626 47901
L76438 47942
" />
<path d="M110086 43293
L110015 43337
" />
<path d="M102238 44071
L102198 44106
" />
<path d="M56289 10472
L56330 10395
" />
<path d="M83753 47841
L83566 47832
" />
<path d="M62806 53103
L62748 53046
" />
<path d="M62748 53046
L62700 52978
" />
<path d="M56386 10327
L56453 10272
" />
<path d="M102429 43982
L102377 43996
" />
<path d="M90953 49724
L84854 48030
" />
<path d="M56309 41347
L56285 41224
" />
<path d="M98462 49892
L98404 49896
" />
<path d="M98404 49896
L92213 49896
" />
<path d="M56471 41824
L56421 41708
" />
<path d="M92213 49896
L91894 49885
" />
<path d="M91894 49885
L91577 49852
" />
<path d="M91577 49852
L91263 49799
" />
<path d="M102281 44041
L102238 44071
" />
<path d="M57377 43754
L56471 41824
" />
<path d="M91263 49799
L90953 49724
" />
<path d="M19557 -15050
L19557 -15050
" />
</g>
<g style="fill:#C2C200; fill-opacity:0.0; 
stroke:#C2C200; stroke-width:47.2441; stroke-opacity:1; 
stroke-linecap:round; stroke-linejoin:round;">
<path d="M82991 16889
L82991 18110
" />
<path d="M82991 18110
L84408 18110
" />
<path d="M84408 18110
L84408 16889
" />
<path d="M84408 16889
L82991 16889
" />
<path d="M68191 18289
L68191 19510
" />
<path d="M68191 19510
L69608 19510
" />
<path d="M69608 19510
L69608 18289
" />
<path d="M69608 18289
L68191 18289
" />
<path d="M98191 19289
L98191 20510
" />
<path d="M98191 20510
L99608 20510
" />
<path d="M99608 20510
L99608 19289
" />
<path d="M99608 19289
L98191 19289
" />
<path d="M105791 27489
L105791 28710
" />
<path d="M105791 28710
L107208 28710
" />
<path d="M107208 28710
L107208 27489
" />
<path d="M107208 27489
L105791 27489
" />
<path d="M68391 33489
L68391 34710
" />
<path d="M68391 34710
L69808 34710
" />
<path d="M69808 34710
L69808 33489
" />
<path d="M69808 33489
L68391 33489
" />
<path d="M66991 41289
L66991 42510
" />
<path d="M66991 42510
L68408 42510
" />
<path d="M68408 42510
L68408 41289
" />
<path d="M68408 41289
L66991 41289
" />
<path d="M83191 39689
L83191 40910
" />
<path d="M83191 40910
L84608 40910
" />
<path d="M84608 40910
L84608 39689
" />
<path d="M84608 39689
L83191 39689
" />
<path d="M94591 41489
L94591 42710
" />
<path d="M94591 42710
L96008 42710
" />
<path d="M96008 42710
L96008 41489
" />
<path d="M96008 41489
L94591 41489
" />
<path d="M68191 17910
L68191 16689
" />
<path d="M68191 16689
L69608 16689
" />
<path d="M69608 16689
L69608 17910
" />
<path d="M69608 17910
L68191 17910
" />
<path d="M75791 16910
L75791 15689
" />
<path d="M75791 15689
L77208 15689
" />
<path d="M77208 15689
L77208 16910
" />
<path d="M77208 16910
L75791 16910
" />
<path d="M82991 16510
L82991 15289
" />
<path d="M82991 15289
L84408 15289
" />
<path d="M84408 15289
L84408 16510
" />
<path d="M84408 16510
L82991 16510
" />
<path d="M90791 17110
L90791 15889
" />
<path d="M90791 15889
L92208 15889
" />
<path d="M92208 15889
L92208 17110
" />
<path d="M92208 17110
L90791 17110
" />
<path d="M98191 18710
L98191 17489
" />
<path d="M98191 17489
L99608 17489
" />
<path d="M99608 17489
L99608 18710
" />
<path d="M99608 18710
L98191 18710
" />
<path d="M83191 24310
L83191 23089
" />
<path d="M83191 23089
L84608 23089
" />
<path d="M84608 23089
L84608 24310
" />
<path d="M84608 24310
L83191 24310
" />
<path d="M90591 24710
L90591 23489
" />
<path d="M90591 23489
L92008 23489
" />
<path d="M92008 23489
L92008 24710
" />
<path d="M92008 24710
L90591 24710
" />
<path d="M98191 26710
L98191 25489
" />
<path d="M98191 25489
L99608 25489
" />
<path d="M99608 25489
L99608 26710
" />
<path d="M99608 26710
L98191 26710
" />
<path d="M105791 27110
L105791 25889
" />
<path d="M105791 25889
L107208 25889
" />
<path d="M107208 25889
L107208 27110
" />
<path d="M107208 27110
L105791 27110
" />
<path d="M105791 19510
L105791 18289
" />
<path d="M105791 18289
L107208 18289
" />
<path d="M107208 18289
L107208 19510
" />
<path d="M107208 19510
L105791 19510
" />
<path d="M75791 24710
L75791 23489
" />
<path d="M75791 23489
L77208 23489
" />
<path d="M77208 23489
L77208 24710
" />
<path d="M77208 24710
L75791 24710
" />
<path d="M68391 33110
L68391 31889
" />
<path d="M68391 31889
L69808 31889
" />
<path d="M69808 31889
L69808 33110
" />
<path d="M69808 33110
L68391 33110
" />
<path d="M75591 32310
L75591 31089
" />
<path d="M75591 31089
L77008 31089
" />
<path d="M77008 31089
L77008 32310
" />
<path d="M77008 32310
L75591 32310
" />
<path d="M83191 31710
L83191 30489
" />
<path d="M83191 30489
L84608 30489
" />
<path d="M84608 30489
L84608 31710
" />
<path d="M84608 31710
L83191 31710
" />
<path d="M98191 41710
L98191 40489
" />
<path d="M98191 40489
L99608 40489
" />
<path d="M99608 40489
L99608 41710
" />
<path d="M99608 41710
L98191 41710
" />
<path d="M105791 42710
L105791 41489
" />
<path d="M105791 41489
L107208 41489
" />
<path d="M107208 41489
L107208 42710
" />
<path d="M107208 42710
L105791 42710
" />
<path d="M105791 34710
L105791 33489
" />
<path d="M105791 33489
L107208 33489
" />
<path d="M107208 33489
L107208 34710
" />
<path d="M107208 34710
L105791 34710
" />
<path d="M98191 34110
L98191 32889
" />
<path d="M98191 32889
L99608 32889
" />
<path d="M99608 32889
L99608 34110
" />
<path d="M99608 34110
L98191 34110
" />
<path d="M90591 32310
L90591 31089
" />
<path d="M90591 31089
L92008 31089
" />
<path d="M92008 31089
L92008 32310
" />
<path d="M92008 32310
L90591 32310
" />
<path d="M90791 40110
L90791 38889
" />
<path d="M90791 38889
L92208 38889
" />
<path d="M92208 38889
L92208 40110
" />
<path d="M92208 40110
L90791 40110
" />
<path d="M83191 39510
L83191 38289
" />
<path d="M83191 38289
L84608 38289
" />
<path d="M84608 38289
L84608 39510
" />
<path d="M84608 39510
L83191 39510
" />
<path d="M75791 39910
L75791 38689
" />
<path d="M75791 38689
L77208 38689
" />
<path d="M77208 38689
L77208 39910
" />
<path d="M77208 39910
L75791 39910
" />
<path d="M68191 40710
L68191 39489
" />
<path d="M68191 39489
L69608 39489
" />
<path d="M69608 39489
L69608 40710
" />
<path d="M69608 40710
L68191 40710
" />
<path d="M60217 48191
L61274 47581
" />
<path d="M61274 47581
L61982 48808
" />
<path d="M61982 48808
L60925 49418
" />
<path d="M60925 49418
L60217 48191
" />
<path d="M94591 49310
L94591 48089
" />
<path d="M94591 48089
L96008 48089
" />
<path d="M96008 48089
L96008 49310
" />
<path d="M96008 49310
L94591 49310
" />
<path d="M86991 47710
L86991 46489
" />
<path d="M86991 46489
L88408 46489
" />
<path d="M88408 46489
L88408 47710
" />
<path d="M88408 47710
L86991 47710
" />
<path d="M79591 47310
L79591 46089
" />
<path d="M79591 46089
L81008 46089
" />
<path d="M81008 46089
L81008 47310
" />
<path d="M81008 47310
L79591 47310
" />
<path d="M71973 47672
L71657 46493
" />
<path d="M71657 46493
L73026 46127
" />
<path d="M73026 46127
L73342 47306
" />
<path d="M73342 47306
L71973 47672
" />
<path d="M68191 25710
L68191 24489
" />
<path d="M68191 24489
L69608 24489
" />
<path d="M69608 24489
L69608 25710
" />
<path d="M69608 25710
L68191 25710
" />
<path d="M136121 18051
L134704 18051
" />
<path d="M136121 19272
L136121 18051
" />
<path d="M134704 19272
L136121 19272
" />
<path d="M134704 18051
L134704 19272
" />
<path d="M134704 18051
L134704 19272
" />
<path d="M134704 19272
L136121 19272
" />
<path d="M136121 19272
L136121 18051
" />
<path d="M136121 18051
L134704 18051
" />
<path d="M136121 18051
L134704 18051
" />
<path d="M136121 19272
L136121 18051
" />
<path d="M134704 19272
L136121 19272
" />
<path d="M134704 18051
L134704 19272
" />
<path d="M134704 18051
L134704 19272
" />
<path d="M134704 19272
L136121 19272
" />
<path d="M136121 19272
L136121 18051
" />
<path d="M136121 18051
L134704 18051
" />
<path d="M136121 18051
L134704 18051
" />
<path d="M136121 19272
L136121 18051
" />
<path d="M134704 19272
L136121 19272
" />
<path d="M134704 18051
L134704 19272
" />
<path d="M136121 18051
L134704 18051
" />
<path d="M136121 19272
L136121 18051
" />
<path d="M134704 19272
L136121 19272
" />
<path d="M134704 18051
L134704 19272
" />
<path d="M136121 18051
L134704 18051
" />
<path d="M136121 19272
L136121 18051
" />
<path d="M134704 19272
L136121 19272
" />
<path d="M134704 18051
L134704 19272
" />
<path d="M136121 18051
L134704 18051
" />
<path d="M136121 19272
L136121 18051
" />
<path d="M134704 19272
L136121 19272
" />
<path d="M134704 18051
L134704 19272
" />
<path d="M136121 18051
L134704 18051
" />
<path d="M136121 19272
L136121 18051
" />
<path d="M134704 19272
L136121 19272
" />
<path d="M134704 18051
L134704 19272
" />
<path d="M136121 18051
L134704 18051
" />
<path d="M136121 19272
L136121 18051
" />
<path d="M134704 19272
L136121 19272
" />
<path d="M134704 18051
L134704 19272
" />
<path d="M134704 18051
L134704 19272
" />
<path d="M134704 19272
L136121 19272
" />
<path d="M136121 19272
L136121 18051
" />
<path d="M136121 18051
L134704 18051
" />
<path d="M136121 18051
L134704 18051
" />
<path d="M136121 19272
L136121 18051
" />
<path d="M134704 19272
L136121 19272
" />
<path d="M134704 18051
L134704 19272
" />
<path d="M134704 18051
L134704 19272
" />
<path d="M134704 19272
L136121 19272
" />
<path d="M136121 19272
L136121 18051
" />
<path d="M136121 18051
L134704 18051
" />
<path d="M136121 18051
L134704 18051
" />
<path d="M136121 19272
L136121 18051
" />
<path d="M134704 19272
L136121 19272
" />
<path d="M134704 18051
L134704 19272
" />
<path d="M134704 18051
L134704 19272
" />
<path d="M134704 19272
L136121 19272
" />
<path d="M136121 19272
L136121 18051
" />
<path d="M136121 18051
L134704 18051
" />
<path d="M136121 18051
L134704 18051
" />
<path d="M136121 19272
L136121 18051
" />
<path d="M134704 19272
L136121 19272
" />
<path d="M134704 18051
L134704 19272
" />
<path d="M134704 18051
L134704 19272
" />
<path d="M134704 19272
L136121 19272
" />
<path d="M136121 19272
L136121 18051
" />
<path d="M136121 18051
L134704 18051
" />
<path d="M136121 18051
L134704 18051
" />
<path d="M136121 19272
L136121 18051
" />
<path d="M134704 19272
L136121 19272
" />
<path d="M134704 18051
L134704 19272
" />
<path d="M136121 18051
L134704 18051
" />
<path d="M136121 19272
L136121 18051
" />
<path d="M134704 19272
L136121 19272
" />
<path d="M134704 18051
L134704 19272
" />
<path d="M134704 18051
L134704 19272
" />
<path d="M134704 19272
L136121 19272
" />
<path d="M136121 19272
L136121 18051
" />
<path d="M136121 18051
L134704 18051
" />
<path d="M134704 18051
L134704 19272
" />
<path d="M134704 19272
L136121 19272
" />
<path d="M136121 19272
L136121 18051
" />
<path d="M136121 18051
L134704 18051
" />
<path d="M136121 18051
L134704 18051
" />
<path d="M136121 19272
L136121 18051
" />
<path d="M134704 19272
L136121 19272
" />
<path d="M134704 18051
L134704 19272
" />
<path d="M134704 18051
L134704 19272
" />
<path d="M134704 19272
L136121 19272
" />
<path d="M136121 19272
L136121 18051
" />
<path d="M136121 18051
L134704 18051
" />
<path d="M134704 18051
L134704 19272
" />
<path d="M134704 19272
L136121 19272
" />
<path d="M136121 19272
L136121 18051
" />
<path d="M136121 18051
L134704 18051
" />
<path d="M136121 18051
L134704 18051
" />
<path d="M136121 19272
L136121 18051
" />
<path d="M134704 19272
L136121 19272
" />
<path d="M134704 18051
L134704 19272
" />
<path d="M134704 18051
L134704 19272
" />
<path d="M134704 19272
L136121 19272
" />
<path d="M136121 19272
L136121 18051
" />
<path d="M136121 18051
L134704 18051
" />
<path d="M134704 18051
L134704 19272
" />
<path d="M134704 19272
L136121 19272
" />
<path d="M136121 19272
L136121 18051
" />
<path d="M136121 18051
L134704 18051
" />
<path d="M134704 18051
L134704 19272
" />
<path d="M134704 19272
L136121 19272
" />
<path d="M136121 19272
L136121 18051
" />
<path d="M136121 18051
L134704 18051
" />
<path d="M136121 18051
L134704 18051
" />
<path d="M136121 19272
L136121 18051
" />
<path d="M134704 19272
L136121 19272
" />
<path d="M134704 18051
L134704 19272
" />
<path d="M134704 18051
L134704 19272
" />
<path d="M134704 19272
L136121 19272
" />
<path d="M136121 19272
L136121 18051
" />
<path d="M136121 18051
L134704 18051
" />
<path d="M134704 18051
L134704 19272
" />
<path d="M134704 19272
L136121 19272
" />
<path d="M136121 19272
L136121 18051
" />
<path d="M136121 18051
L134704 18051
" />
<path d="M136121 18051
L134704 18051
" />
<path d="M136121 19272
L136121 18051
" />
<path d="M134704 19272
L136121 19272
" />
<path d="M134704 18051
L134704 19272
" />
<path d="M134704 18051
L134704 19272
" />
<path d="M134704 19272
L136121 19272
" />
<path d="M136121 19272
L136121 18051
" />
<path d="M136121 18051
L134704 18051
" />
<path d="M134704 18051
L134704 19272
" />
<path d="M134704 19272
L136121 19272
" />
<path d="M136121 19272
L136121 18051
" />
<path d="M136121 18051
L134704 18051
" />
<path d="M136121 18051
L134704 18051
" />
<path d="M136121 19272
L136121 18051
" />
<path d="M134704 19272
L136121 19272
" />
<path d="M134704 18051
L134704 19272
" />
<path d="M136121 18051
L134704 18051
" />
<path d="M136121 19272
L136121 18051
" />
<path d="M134704 19272
L136121 19272
" />
<path d="M134704 18051
L134704 19272
" />
<path d="M134704 18051
L134704 19272
" />
<path d="M134704 19272
L136121 19272
" />
<path d="M136121 19272
L136121 18051
" />
<path d="M136121 18051
L134704 18051
" />
<g >
</g>
<g >
</g>
<g >
</g>
<g >
</g>
<g >
</g>
<g >
</g>
<g >
</g>
<g >
</g>
<g >
</g>
<g >
</g>
<g >
</g>
<g >
</g>
<g >
</g>
<g >
</g>
<g >
</g>
<g >
</g>
<g >
</g>
<g >
</g>
<g >
</g>
<g >
</g>
<g >
</g>
<g >
</g>
<g >
</g>
<g >
</g>
<g >
</g>
<g >
</g>
<g >
</g>
<g >
</g>
<g >
</g>
<g >
</g>
<g >
</g>
<g >
</g>
<g >
</g>
<g >
</g>
<g >
</g>
<g >
</g>
<g >
</g>
<g >
</g>
<g >
</g>
<g >
</g>
<g >
</g>
<g >
</g>
<g >
</g>
<g >
</g>
<g >
</g>
<g >
</g>
<g >
</g>
<g >
</g>
<g >
</g>
<g >
</g>
<g >
</g>
<g >
</g>
<g >
</g>
<g >
</g>
<g >
</g>
<g >
</g>
<g >
</g>
<g >
</g>
<g >
</g>
<g >
</g>
<g >
</g>
<g >
</g>
<g >
</g>
<g >
</g>
<g >
</g>
<g >
</g>
<g >
</g>
<g >
</g>
<g >
</g>
<g >
</g>
<g >
</g>
<g >
</g>
<g >
</g>
<g >
</g>
<g >
</g>
<g >
</g>
<g >
</g>
<g >
</g>
<g >
</g>
<g >
</g>
<g >
</g>
<g >
</g>
<g >
</g>
<g >
</g>
<g >
</g>
<g >
</g>
<g >
</g>
<g >
</g>
<g >
</g>
<g >
</g>
<g >
</g>
<g >
</g>
<g >
</g>
<g >
</g>
<g >
</g>
<g >
</g>
<g >
</g>
<g >
</g>
<g >
</g>
<g >
</g>
<g >
</g>
<g >
</g>
<g >
</g>
<g >
</g>
<g >
</g>
<g >
</g>
<g >
</g>
<g >
</g>
<g >
</g>
<g >
</g>
<g >
</g>
<g >
</g>
<g >
</g>
<g >
</g>
<g >
</g>
<g >
</g>
<g >
</g>
<g >
</g>
<g >
</g>
<g >
</g>
<g >
</g>
<g >
</g>
<g >
</g>
<g >
</g>
<g >
</g>
<g >
</g>
<g >
</g>
<g >
</g>
<g >
</g>
<g >
</g>
<g >
</g>
<g >
</g>
<g >
</g>
<g >
</g>
<g >
</g>
<g >
</g>
<g >
</g>
<g >
</g>
<g >
</g>
<g >
</g>
<g >
</g>
<g >
</g>
<g >
</g>
<g >
</g>
<g >
</g>
<g >
</g>
<g >
</g>
<g >
</g>
<g >
</g>
<g >
</g>
<g >
</g>
<g >
</g>
<g >
</g>
<g >
</g>
<g >
</g>
<g >
</g>
<g >
</g>
<g >
</g>
<g >
</g>
<g >
</g>
<g >
</g>
<g >
</g>
<g >
</g>
<g >
</g>
<g >
</g>
<g >
</g>
<g >
</g>
<g >
</g>
<g >
</g>
<g >
</g>
<g >
</g>
<g >
</g>
<g >
</g>
<g >
</g>
<g >
</g>
<g >
</g>
<g >
</g>
<g >
</g>
<g >
</g>
<g >
</g>
<g >
</g>
<g >
</g>
<g >
</g>
<g >
</g>
<g >
</g>
<g >
</g>
<g >
</g>
<g >
</g>
<g >
</g>
<g >
</g>
<g >
</g>
<g >
</g>
<g >
</g>
<g >
</g>
<g >
</g>
<g >
</g>
<g >
</g>
<g >
</g>
<g >
</g>
<g >
</g>
<g >
</g>
<g >
</g>
<g >
</g>
<g >
</g>
<g >
</g>
<g >
</g>
<g >
</g>
<g >
</g>
<g >
</g>
<g >
</g>
<g >
</g>
<g >
</g>
<g >
</g>
<g >
</g>
<g >
</g>
<g >
</g>
<g >
</g>
<g >
</g>
<g >
</g>
<g >
</g>
<g >
</g>
<g >
</g>
<g >
</g>
<g >
</g>
<g >
</g>
<g >
</g>
<g >
</g>
<g >
</g>
<g >
</g>
<g >
</g>
<g >
</g>
<g >
</g>
<g >
</g>
<g >
</g>
<g >
</g>
<g >
</g>
<g >
</g>
<g >
</g>
<g >
</g>
<g >
</g>
<g >
</g>
<g >
</g>
<g >
</g>
<g >
</g>
</g> 
</svg>
